<mxfile host="app.diagrams.net" modified="2024-04-18T02:27:36.196Z" agent="Mozilla/5.0 (Windows NT 10.0; Win64; x64) AppleWebKit/537.36 (KHTML, like Gecko) Chrome/123.0.0.0 Safari/537.36" version="24.2.5" etag="HDgwdCyvQUkC5vOmUm9l" type="github">
  <diagram name="第 1 页" id="j2x289d80yOzC9EUgb64">
    <mxGraphModel>
      <root>
        <mxCell id="0" />
        <mxCell id="1" parent="0" />
      </root>
    </mxGraphModel>
  </diagram>
</mxfile>
